<?xml version="1.0" encoding="UTF-8" standalone="no"?>
<!-- Created with Inkscape (http://www.inkscape.org/) -->

<svg
   width="133.5601mm"
   height="36.298809mm"
   viewBox="0 0 133.5601 36.298809"
   version="1.1"
   id="svg1"
   inkscape:version="1.4 (e7c3feb100, 2024-10-09)"
   sodipodi:docname="logo.svg"
   inkscape:export-filename="logo.png"
   inkscape:export-xdpi="96"
   inkscape:export-ydpi="96"
   xmlns:inkscape="http://www.inkscape.org/namespaces/inkscape"
   xmlns:sodipodi="http://sodipodi.sourceforge.net/DTD/sodipodi-0.dtd"
   xmlns="http://www.w3.org/2000/svg"
   xmlns:svg="http://www.w3.org/2000/svg">
  <sodipodi:namedview
     id="namedview1"
     pagecolor="#ffffff"
     bordercolor="#000000"
     borderopacity="0.25"
     inkscape:showpageshadow="2"
     inkscape:pageopacity="0.0"
     inkscape:pagecheckerboard="0"
     inkscape:deskcolor="#d1d1d1"
     inkscape:document-units="mm"
     inkscape:zoom="2.096401"
     inkscape:cx="258.77683"
     inkscape:cy="66.781117"
     inkscape:window-width="1920"
     inkscape:window-height="1043"
     inkscape:window-x="0"
     inkscape:window-y="0"
     inkscape:window-maximized="1"
     inkscape:current-layer="layer1" />
  <defs
     id="defs1">
    <rect
       x="163.25105"
       y="195.63144"
       width="242.85281"
       height="111.98213"
       id="rect1" />
  </defs>
  <g
     inkscape:label="Layer 1"
     inkscape:groupmode="layer"
     id="layer1"
     transform="translate(-29.713799,-53.272701)">
    <path
       d="m 207.12305,238.63341 q 0,-4.6875 -0.42188,-6.42187 -0.42187,-1.78125 -1.54687,-1.78125 -0.70313,0 -1.26563,0.46875 0.0937,0.84375 0.28125,2.25 0.1875,1.40625 0.1875,6 v 3.04687 q 0,3.1875 -0.14062,4.64063 -0.14063,1.45312 -0.23438,2.48437 -0.0469,0.5625 -0.0937,1.125 0.5625,0.46875 1.26563,0.46875 1.125,0 1.54687,-1.73437 0.42188,-1.78125 0.42188,-6.46875 z m -17.48438,32.39063 q -5.20312,0 -8.0625,-2.76563 -2.8125,-2.76562 -2.8125,-8.34375 v -42.1875 q 0,-3.5625 7.125,-6 7.17188,-2.48437 15.98438,-2.48437 15.51562,0 24.23437,7.5 9.375,8.0625 9.375,24.04687 0,14.39063 -9.09375,22.3125 -9.04687,7.92188 -24.89062,7.92188 z m 95.29688,-23.25 q 0,3.375 0.75,5.4375 0.75,2.0625 2.625,3.23437 0.0469,0.23438 0.0469,0.89063 v 0.84375 q 0,6.65625 -4.03125,10.35937 -3.5625,3.28125 -8.8125,3.28125 -3.5625,0 -6.51562,-1.6875 -2.95313,-1.6875 -4.21875,-4.875 -1.59375,0 -1.59375,1.54688 0,1.3125 1.64062,2.95312 -3.04687,2.0625 -9.1875,2.0625 -8.67187,0 -13.875,-4.6875 -5.15625,-4.73437 -5.15625,-13.17187 0,-8.48438 5.48438,-13.125 5.01562,-4.17188 12.98437,-4.17188 2.71875,0 5.25,0.375 1.6875,0.32813 1.82813,0.375 0.14062,-0.46875 0.14062,-0.79687 0,-1.21875 -2.0625,-1.64063 -2.0625,-0.42187 -5.39062,-0.42187 -7.07813,0 -12.09375,2.85937 -2.29688,-3.89062 -2.29688,-9.84375 0,-3.375 0.84375,-5.01562 3.375,-1.54688 8.57813,-2.71875 5.20312,-1.21875 10.96875,-1.21875 11.90625,0 18,5.20312 6.09375,5.20313 6.09375,14.76563 z m -24.32813,2.29687 q -1.96875,0 -1.96875,1.78125 0,1.6875 2.29688,1.6875 1.59375,0 2.34375,-0.75 0.75,-0.79687 0.75,-2.71875 z m 54.75,-15.84375 q -1.21875,0.375 -1.21875,1.45313 v 0.23437 q 0,0.23438 0.0469,0.28125 0.51562,-0.0469 1.35937,-0.0469 h 1.125 q 5.34375,0 9.98438,1.64062 4.6875,1.59375 7.64062,5.15625 3.28125,4.03125 3.28125,10.17188 0,9.5625 -6.60937,14.4375 -6.60938,4.875 -17.67188,4.875 -11.0625,0 -17.34375,-3.65625 -6.23437,-3.65625 -6.23437,-10.73438 0,-2.625 1.125,-4.78125 1.125,-2.20312 2.53125,-3.09375 2.57812,2.15625 7.45312,3.75 4.92188,1.54688 10.40625,1.54688 2.20313,0 2.20313,-1.21875 0,-0.5625 -0.14063,-0.9375 -0.32812,0.0469 -0.79687,0.0469 h -0.51563 q -9.9375,0 -15.89062,-3.9375 -6.75,-4.45312 -6.75,-12.5625 0,-8.10937 6.04687,-13.125 6.70313,-5.53125 18.42188,-5.53125 5.76562,0 10.73437,1.21875 5.01563,1.21875 8.57813,3.23438 0.89062,1.92187 0.89062,5.67187 0,5.71875 -3.14062,8.76563 -2.39063,-1.3125 -5.85938,-2.15625 -3.42187,-0.89063 -6.1875,-0.89063 -2.76562,0 -3.46875,0.1875 z m 73.6875,13.54688 q 0,3.375 0.75,5.4375 0.75,2.0625 2.625,3.23437 0.0469,0.23438 0.0469,0.89063 v 0.84375 q 0,6.46875 -3.75,10.07812 -3.70313,3.5625 -9.60938,3.5625 -5.85937,0 -9.51562,-3.32812 -4.26563,-3.79688 -4.26563,-11.53125 0,-3.28125 0.28125,-5.76563 0.32813,-2.53125 0.42188,-3.60937 0.14062,-1.07813 0.28125,-2.01563 0.14062,-0.9375 0.14062,-2.76562 0,-1.82813 -0.51562,-2.625 -0.46875,-0.79688 -1.35938,-0.79688 -0.84375,0 -1.5,0.375 l 0.60938,7.64063 q -0.84375,4.73437 -0.84375,10.03125 0,5.29687 2.39062,9.65625 -4.59375,4.73437 -12.89062,4.73437 -4.73438,0 -8.20313,-2.48437 -4.03125,-2.8125 -4.03125,-7.45313 v -54.70312 q 2.25,-1.3125 5.39063,-2.15625 3.1875,-0.84375 6.42187,-0.84375 5.39063,0 8.90625,2.10937 3.98438,2.48438 3.98438,7.125 v 4.45313 q -4.07813,0.23437 -7.82813,2.34375 -3.23437,1.875 -3.23437,3.42187 0,0.51563 0.375,0.9375 0.375,0.375 0.89062,0.46875 1.96875,-2.29687 5.53125,-3.84375 3.60938,-1.54687 8.53125,-1.54687 4.92188,0 8.85938,1.5 4.96875,1.875 7.82812,5.71875 3.42188,4.6875 3.42188,11.76562 z"
       id="text1"
       style="font-size:96px;font-family:Modak;-inkscape-font-specification:Modak;text-align:center;text-anchor:middle;white-space:pre;fill:#d40000;stroke:#000000;stroke-width:5.66929;stroke-linecap:square;stroke-linejoin:bevel"
       transform="matrix(0.26458333,0,-0.17605262,0.26458333,41.95427,0)"
       aria-label="Dash" />
    <path
       style="fill:none;stroke:#000000;stroke-width:0.9;stroke-linecap:round;stroke-linejoin:bevel;stroke-dasharray:none"
       d="M 50.689904,60.952824 H 33.823015"
       id="path2" />
    <path
       style="fill:none;stroke:#000000;stroke-width:0.899999;stroke-linecap:round;stroke-linejoin:bevel;stroke-dasharray:none"
       d="M 49.095053,63.135731 H 30.163799"
       id="path3" />
    <path
       style="fill:none;stroke:#000000;stroke-width:0.899999;stroke-linecap:round;stroke-linejoin:bevel;stroke-dasharray:none"
       d="m 48.400906,65.091961 -10.664607,0.06311 v 0"
       id="path4" />
    <path
       d="m 78.368799,82.459107 q 0,0.892968 0.198437,1.438671 0.198438,0.545704 0.694532,0.855762 0.0124,0.06201 0.0124,0.235645 v 0.223242 q 0,1.761133 -1.066602,2.740918 -0.942578,0.868164 -2.33164,0.868164 -0.942578,0 -1.723926,-0.446485 -0.781348,-0.446484 -1.116211,-1.289843 -0.421679,0 -0.421679,0.409277 0,0.347266 0.434082,0.781348 -0.806153,0.545703 -2.43086,0.545703 -2.294433,0 -3.671093,-1.240235 -1.364258,-1.252636 -1.364258,-3.485058 0,-2.244824 1.451074,-3.472656 1.327051,-1.103809 3.435449,-1.103809 0.719336,0 1.389063,0.09922 0.446484,0.08682 0.483691,0.09922 0.03721,-0.124024 0.03721,-0.21084 0,-0.322461 -0.545703,-0.434082 -0.545703,-0.111621 -1.42627,-0.111621 -1.872753,0 -3.199804,0.756543 -0.607715,-1.029395 -0.607715,-2.604493 0,-0.892968 0.223242,-1.32705 0.892969,-0.409278 2.269629,-0.719336 1.37666,-0.322461 2.902148,-0.322461 3.150196,0 4.7625,1.37666 1.612305,1.37666 1.612305,3.906738 z m -6.436816,0.607714 q -0.520899,0 -0.520899,0.471289 0,0.446485 0.607715,0.446485 0.42168,0 0.620117,-0.198438 0.198438,-0.21084 0.198438,-0.719336 z m 20.972363,-0.607714 q 0,0.892968 0.198437,1.438671 0.198438,0.545704 0.694532,0.855762 0.0124,0.06201 0.0124,0.235645 v 0.223242 q 0,1.711523 -0.992188,2.666504 -0.979785,0.942578 -2.54248,0.942578 -1.550293,0 -2.517676,-0.880567 -1.128613,-1.004589 -1.128613,-3.050976 0,-0.868164 0.07441,-1.525488 0.08682,-0.669727 0.111621,-0.954981 0.03721,-0.285254 0.07441,-0.533301 0.03721,-0.248046 0.03721,-0.731738 0,-0.483691 -0.136426,-0.694531 -0.124023,-0.21084 -0.359668,-0.21084 -0.223242,0 -0.396875,0.09922 l 0.161231,2.021582 q -0.223242,1.252636 -0.223242,2.654101 0,1.401465 0.632519,2.554883 -1.215429,1.252637 -3.410644,1.252637 -1.252637,0 -2.17041,-0.657324 -1.066602,-0.744141 -1.066602,-1.971973 v -6.002734 q -0.731738,-1.029395 -0.731738,-2.530078 0,-1.513086 0.731738,-2.616895 h 2.207617 q 0.880567,0 1.500684,0.657324 -0.545703,0.508496 -0.545703,0.84336 0,0.384472 0.434082,0.384472 0.545703,-0.942578 1.661914,-1.562695 1.128613,-0.620117 2.554883,-0.620117 2.145605,0 3.485058,1.054199 1.686719,1.327051 1.686719,4.117578 z m 8.272364,-2.654102 q -0.12402,-0.124023 -0.29766,-0.124023 -0.27285,0 -0.37207,0.396875 -0.0992,0.384472 -0.0992,1.575097 v 1.265039 q 0,0.334864 0.0868,0.471289 0.0868,0.136426 0.28525,0.136426 0.19844,0 0.28526,-0.08682 v -1.661914 q 0,-1.21543 0.11162,-1.971973 z m -0.89297,-7.329785 q 0.65732,-0.768945 1.45107,-1.153418 0.79375,-0.396875 2.02159,-0.396875 1.48828,0 2.41845,0.830957 0.95498,0.892969 0.95498,2.406055 v 8.185546 q 0,1.84795 0.89297,2.406055 0.0124,0.06201 0.0124,0.235645 v 0.223242 q 0,1.761133 -1.06661,2.740918 -0.94257,0.868164 -2.33164,0.868164 -0.96738,0 -1.67431,-0.409278 -0.83096,-0.471289 -1.16582,-1.289843 -0.42168,0 -0.42168,0.409277 0,0.186035 0.13642,0.434082 0.14883,0.235645 0.39688,0.42168 -0.73174,0.434082 -1.89756,0.434082 -1.575099,0 -2.951759,-0.719336 -1.364258,-0.731738 -2.17041,-2.195215 -0.930176,-1.674316 -0.930176,-4.055566 0,-3.175 1.773535,-4.985742 1.785938,-1.810743 4.55166,-1.810743 1.63711,0 2.85254,0.620118 0.13643,-0.136426 0.13643,-0.285254 0,-0.372071 -0.88057,-0.63252 -0.88057,-0.260449 -1.77354,-0.260449 0,-1.265039 -0.33486,-2.021582 z"
       id="text4"
       style="font-size:25.4px;font-family:Modak;-inkscape-font-specification:Modak;text-align:center;text-anchor:middle;fill:#d40000;stroke:#000000;stroke-width:1.5;stroke-linecap:round;stroke-linejoin:bevel"
       aria-label="and" />
    <path
       id="text5"
       style="font-style:normal;font-variant:normal;font-weight:normal;font-stretch:normal;font-size:25.4px;font-family:Modak;-inkscape-font-specification:Modak;text-align:center;writing-mode:lr-tb;direction:ltr;text-anchor:middle;fill:#d40000;stroke:#000000;stroke-width:1.5;stroke-linecap:round;stroke-linejoin:bevel;stroke-dasharray:none"
       d="m 130.21582,69.92028 c -0.99218,0 -1.83141,0.330729 -2.51767,0.992187 -0.68626,0.661459 -1.0294,1.513086 -1.0294,2.554883 0,0.603581 0.1447,1.132748 0.43409,1.5875 0.28938,0.446485 0.61185,0.760677 0.96738,0.942578 -0.19017,0.09922 -0.37207,0.181901 -0.5457,0.248047 -0.17364,0.06615 -0.33487,0.152963 -0.4837,0.260449 v 8.061524 c 0,1.413867 0.41755,2.488737 1.25264,3.224609 0.66146,0.578776 1.50068,0.868164 2.51768,0.868164 1.02526,0 1.84381,-0.289388 2.45566,-0.868164 0.66146,-0.611849 0.99219,-1.525488 0.99219,-2.740918 v -0.223242 c 0,-0.115755 -0.004,-0.194303 -0.0124,-0.235644 -0.59532,-0.372071 -0.89297,-1.174089 -0.89297,-2.406055 V 77.27487 c -0.0744,-0.09095 -0.27699,-0.264584 -0.60772,-0.520899 -0.43821,0.33073 -0.86816,0.496094 -1.28984,0.496094 -0.23978,0 -0.35967,-0.157096 -0.35967,-0.471289 0.73587,-0.157096 1.36012,-0.541569 1.87275,-1.153418 0.51263,-0.620117 0.76895,-1.339453 0.76895,-2.158008 0,-1.016992 -0.339,-1.860351 -1.01699,-2.530078 -0.66973,-0.677995 -1.50482,-1.016992 -2.50528,-1.016992 z m -12.79921,2.182812 c -1.55443,0 -2.96416,0.219109 -4.2292,0.657325 -1.25677,0.429948 -1.88516,0.959114 -1.88516,1.5875 v 8.092012 a 2.9006333,2.9006333 0 0 1 1.45211,0.609265 2.9006333,2.9006333 0 0 1 0.40566,-0.547253 2.9006333,2.9006333 0 0 1 1.85208,-0.824239 2.9006333,2.9006333 0 0 1 2.24999,0.864547 2.9006333,2.9006333 0 0 1 0.69919,2.885612 2.9006333,2.9006333 0 0 1 1.79058,0.853694 2.9006333,2.9006333 0 0 1 0.81856,1.775602 c 1.30464,-0.342115 2.42004,-0.904683 3.33261,-1.703772 1.60404,-1.39733 2.40606,-3.365169 2.40606,-5.903515 0,-2.819466 -0.82683,-4.940267 -2.48047,-6.362403 -1.53789,-1.322916 -3.67523,-1.984375 -6.41201,-1.984375 z m 38.55888,2.418457 c -1.9761,0 -3.60908,0.607715 -4.89892,1.823145 -1.39733,1.30638 -2.096,3.075781 -2.096,5.308203 0,2.224154 0.678,3.977018 2.03398,5.258594 1.32292,1.273307 3.12953,1.909961 5.41983,1.909961 1.37253,0 2.53835,-0.173633 3.49746,-0.520899 0.67799,-0.23151 1.33945,-0.620117 1.98438,-1.16582 0.0744,-0.297656 0.11162,-0.636654 0.11162,-1.016992 0,-0.388607 -0.062,-0.814421 -0.18604,-1.277442 -0.11575,-0.471289 -0.27285,-0.79375 -0.47129,-0.967382 -0.41341,0.289388 -0.96325,0.541569 -1.64951,0.756543 -0.67799,0.206705 -1.43454,0.310058 -2.26963,0.310058 -0.82682,0 -1.56683,-0.111621 -2.22002,-0.334863 -0.65319,-0.206706 -0.97978,-0.434082 -0.97978,-0.682129 0,-0.132292 0.0331,-0.223242 0.0992,-0.272852 0.81028,0.487826 1.80247,0.731739 2.97656,0.731739 1.57096,0 2.8112,-0.338998 3.7207,-1.016992 0.98392,-0.719336 1.47588,-1.785938 1.47588,-3.199805 0,-1.5875 -0.59945,-2.922819 -1.79834,-4.005957 -1.19062,-1.091406 -2.77399,-1.63711 -4.7501,-1.63711 z m -13.18369,0.06201 c -0.95085,0 -1.80247,0.206706 -2.55488,0.620117 -0.74414,0.413412 -1.29811,0.93431 -1.66192,1.562696 -0.28938,0 -0.43408,-0.128158 -0.43408,-0.384473 0,-0.223242 0.1819,-0.504362 0.54571,-0.843359 -0.41342,-0.438216 -0.91364,-0.657325 -1.50069,-0.657325 h -2.20762 c -0.48782,0.735873 -0.73173,1.608171 -0.73173,2.616895 0,1.000456 0.24391,1.843815 0.73173,2.530078 v 6.002734 c 0,0.818555 0.35554,1.475879 1.06661,1.971973 0.61184,0.438216 1.33531,0.657324 2.17041,0.657324 1.46347,0 2.60035,-0.417545 3.41064,-1.252636 -0.42168,-0.768946 -0.63252,-1.620573 -0.63252,-2.554883 0,-0.93431 0.0744,-1.819011 0.22324,-2.654102 l -0.16123,-2.021582 c 0.11576,-0.06615 0.24805,-0.09922 0.39688,-0.09922 0.15709,0 0.27698,0.07028 0.35967,0.21084 0.091,0.14056 0.13642,0.372071 0.13642,0.694532 0,0.322461 -0.0124,0.566373 -0.0372,0.731738 -0.0248,0.165364 -0.0496,0.343131 -0.0744,0.533301 -0.0165,0.190169 -0.0537,0.508496 -0.11162,0.95498 -0.0496,0.438216 -0.0744,0.946712 -0.0744,1.525488 0,1.364258 0.3762,2.38125 1.12861,3.050977 0.64492,0.587044 1.48415,0.880566 2.51767,0.880566 1.0418,0 1.88929,-0.314192 2.54248,-0.942578 0.66146,-0.636653 0.99219,-1.525488 0.99219,-2.666504 v -0.223242 c 0,-0.115755 -0.004,-0.194303 -0.0124,-0.235644 -0.33073,-0.206706 -0.56224,-0.49196 -0.69453,-0.855762 -0.13229,-0.363802 -0.19844,-0.843359 -0.19844,-1.438672 l 0.0372,-2.54248 c 0,-1.860352 -0.56224,-3.232878 -1.68672,-4.117579 -0.89297,-0.702799 -2.05466,-1.054199 -3.48506,-1.054199 z m -24.50703,3.125391 c 0.19844,0 0.33486,0.157096 0.40928,0.471289 0.0744,0.305924 0.11162,0.872298 0.11162,1.699121 v 1.079004 c 0,0.826823 -0.0372,1.397331 -0.11162,1.711523 -0.0744,0.305925 -0.21084,0.458887 -0.40928,0.458887 -0.12402,0 -0.23564,-0.04134 -0.33486,-0.124023 l 0.0248,-0.297657 c 0.0165,-0.181901 0.0372,-0.401009 0.062,-0.657324 0.0248,-0.256315 0.0372,-0.665592 0.0372,-1.227832 v -0.806152 c 0,-0.810287 -0.0165,-1.339453 -0.0496,-1.5875 -0.0331,-0.248047 -0.0579,-0.446485 -0.0744,-0.595313 0.0992,-0.08268 0.21084,-0.124023 0.33486,-0.124023 z m 37.95117,1.79834 c 0.43822,0 0.65733,0.148828 0.65733,0.446484 0,0.314193 -0.20671,0.471289 -0.62012,0.471289 -0.29766,0 -0.56224,-0.07028 -0.79375,-0.21084 0.0661,-0.471289 0.31833,-0.706933 0.75654,-0.706933 z" />
    <g
       id="g10"
       transform="translate(0.8031851,-0.71394231)">
      <path
         id="rect9"
         style="fill:#ffcc00;stroke:#000000;stroke-width:0.7;stroke-linecap:round;stroke-linejoin:round;stroke-dasharray:none"
         d="m 109.136,56.573451 7.41792,5.464224 c 0,0 -7.21986,8.752952 -8.29022,9.019926 -1.07036,0.266974 -5.19726,-2.255302 -5.13157,-3.780044 0.0567,-1.316083 6.00387,-10.704106 6.00387,-10.704106 z"
         sodipodi:nodetypes="cczsc" />
      <path
         style="fill:#000000;stroke:#000000;stroke-width:0.7;stroke-linecap:round;stroke-linejoin:round;stroke-dasharray:none"
         d="m 109.136,56.573451 7.41792,5.464223 c 0,0 -6.74997,0.71888 -7.41792,-5.464223 z"
         id="path9"
         sodipodi:nodetypes="ccc" />
      <path
         style="fill:#d40000;stroke:#000000;stroke-width:0.77205;stroke-linecap:round;stroke-linejoin:round;stroke-dasharray:none"
         d="m 114.41196,61.558717 c 0.48207,-0.178689 1.02083,-0.300161 1.54113,-0.337894 0.0834,-0.0061 0.1675,0.0061 0.25088,0 0.5949,-0.04315 1.11253,-0.06706 1.68449,0.135158 0.33739,0.119283 0.66971,0.274342 1.00352,0.40547 0.14337,0.05632 0.27941,0.133437 0.43009,0.168949 0.0821,0.01932 0.16828,0.0171 0.25087,0.03378 0.47567,0.0961 0.0363,0.03388 0.46593,0.135158 0.1995,0.04703 0.44012,0.0865 0.64513,0.101371 0.4041,0.02932 0.80127,0.05276 1.18272,-0.101371 0.27681,-0.111845 0.72971,-0.610904 0.82433,-0.878522 0.0193,-0.05449 0.0167,-0.114463 0.0357,-0.168947 0.0532,-0.150402 0.15594,-0.29065 0.21505,-0.439262 0.22095,-0.555522 0.16976,-1.230704 0,-1.790834 -0.0707,-0.233451 -0.16311,-0.42032 -0.32255,-0.608208 -0.0651,-0.0395 -0.0657,-0.116407 -0.10758,-0.168948 -0.0604,-0.07591 -0.13908,-0.115246 -0.21504,-0.168945 -0.33279,-0.235318 -0.65672,-0.270317 -1.0752,-0.270317 -0.17093,0 -0.36935,-0.02643 -0.5376,0 -0.32801,0.05153 -0.63435,0.231033 -0.96769,0.270317 -0.28558,0.03365 -0.56971,0.03378 -0.86017,0.03378 -0.26015,0 -0.4794,-0.186383 -0.7168,-0.270312 -0.21079,-0.07452 -0.076,0.007 -0.28673,-0.06758 -0.14605,-0.05162 -0.43523,-0.203951 -0.57344,-0.236524 -0.27449,-0.0647 -0.67727,-0.113212 -0.96769,-0.06758 -0.18489,0.02906 -0.33526,0.09046 -0.50176,0.168948 -0.0676,0.03186 -0.14746,0.03572 -0.21504,0.06758 -0.26041,0.12275 0.0207,0.0094 -0.1792,0.135158 -0.11917,0.0749 -0.27047,0.169836 -0.39423,0.236525 -0.0328,0.01767 -0.0761,0.01403 -0.10758,0.03378 -0.0843,0.05302 -0.13255,0.147187 -0.21504,0.202737 -0.0435,0.02927 -0.0998,0.03831 -0.14336,0.06758 -0.12722,0.08568 -0.2393,0.207847 -0.35841,0.304106 -0.26906,0.217421 -0.58226,0.426528 -0.896,0.574416 -0.21998,0.103696 -0.47643,0.164966 -0.7168,0.202736 -0.0892,0.01402 -0.31318,0.0084 -0.39426,0.03378 -0.0598,0.01882 -0.2275,0.136631 -0.25086,0.202739 -0.0114,0.03205 0.0114,0.06931 0,0.101361 -0.007,0.02063 -0.0643,0.08075 -0.0717,0.101372 -0.0114,0.03205 0.0114,0.06931 0,0.101372 -0.0254,0.07194 -0.0462,0.130796 -0.0717,0.202738 -0.0169,0.04794 0.0237,0.124125 0,0.168946 -0.0443,0.0835 -0.0357,-0.01167 -0.0357,0.06757"
         id="path10" />
    </g>
  </g>
</svg>
