<?xml version="1.0" encoding="UTF-8" standalone="no"?>
<!-- Created with Inkscape (http://www.inkscape.org/) -->

<svg
   width="63.751442mm"
   height="29.604656mm"
   viewBox="0 0 63.751442 29.604656"
   version="1.1"
   id="svg1"
   inkscape:version="1.4.2 (ebf0e940d0, 2025-05-08)"
   sodipodi:docname="the-great-hamster-wheel-race.svg"
   xmlns:inkscape="http://www.inkscape.org/namespaces/inkscape"
   xmlns:sodipodi="http://sodipodi.sourceforge.net/DTD/sodipodi-0.dtd"
   xmlns="http://www.w3.org/2000/svg"
   xmlns:svg="http://www.w3.org/2000/svg">
  <sodipodi:namedview
     id="namedview1"
     pagecolor="#ffffff"
     bordercolor="#000000"
     borderopacity="0.25"
     inkscape:showpageshadow="2"
     inkscape:pageopacity="0.0"
     inkscape:pagecheckerboard="0"
     inkscape:deskcolor="#d1d1d1"
     inkscape:document-units="mm"
     showgrid="true"
     inkscape:zoom="3.2359634"
     inkscape:cx="125.31044"
     inkscape:cy="84.209852"
     inkscape:window-width="1874"
     inkscape:window-height="986"
     inkscape:window-x="0"
     inkscape:window-y="0"
     inkscape:window-maximized="1"
     inkscape:current-layer="layer1">
    <inkscape:grid
       id="grid1"
       units="mm"
       originx="1.8757218"
       originy="-13.771081"
       spacingx="5"
       spacingy="5"
       empcolor="#0099e5"
       empopacity="0.30196078"
       color="#0099e5"
       opacity="0.14901961"
       empspacing="5"
       enabled="true"
       visible="true" />
  </sodipodi:namedview>
  <defs
     id="defs1" />
  <g
     inkscape:label="Layer 1"
     inkscape:groupmode="layer"
     id="layer1"
     transform="translate(1.8757218,-13.771082)">
    <path
       style="font-size:5.64444px;font-family:'Black Ops One';-inkscape-font-specification:'Black Ops One';fill:#ffffff;stroke:#000000;stroke-width:0.465;stroke-linecap:square;stroke-linejoin:bevel"
       d="m 24.457534,14.800087 v -0.796505 h 3.174998 v 0.796505 z m 0.953602,2.860805 v -2.670636 h 1.267794 v 2.670636 z m 5.002275,0 v -1.485524 h -0.903992 v -0.733115 h 0.895724 v -1.438671 h 1.229209 v 3.65731 z m -2.315102,0 v -3.65731 h 1.218184 v 3.65731 z m 4.128599,0 v -3.65731 h 1.218185 v 1.449695 h 1.165819 v 0.705555 h -1.165819 v 1.50206 z m 2.16903,-2.598978 v -0.350021 h -0.75792 v -0.708311 h 1.904447 v 1.058332 z m -0.75792,2.598978 v -0.730359 h 0.686262 v -0.366558 h 1.218185 v 1.096917 z"
       id="text1"
       aria-label="THE" />
    <path
       d="M 8.3751518,29.143276 6.5492526,27.317377 V 21.825899 L 8.3751518,20 h 1.2195628 v 7.317377 h 2.6113804 v 1.825899 z M 12.343899,22.742294 V 21.825899 H 10.077028 V 20 h 3.71381 l 1.598523,1.825899 v 0.916395 z m 0.344509,6.400982 v -3.259058 h -1.48139 V 24.0721 h 4.182343 v 5.071176 z m 7.689447,-2.742294 v -1.770777 h 2.287542 V 21.825899 H 20.377855 V 20 h 3.479544 l 1.83279,1.825899 v 2.742294 l -1.419379,1.419378 1.729437,3.155705 H 22.748079 L 21.452724,26.400982 Z M 16.85008,29.143276 V 20 h 3.045462 v 9.143276 z m 10.287048,0 V 20 h 3.045462 v 3.624238 h 2.914548 v 1.763887 H 30.18259 v 3.755151 z m 5.422576,-6.497445 V 21.770778 H 30.664903 V 20 h 4.761118 v 2.645831 z m -1.894801,6.497445 v -1.825899 h 1.715656 v -0.916395 h 3.045462 v 2.742294 z m 12.62282,0 -0.38585,-0.999077 h -2.990341 l 0.633897,-1.812119 h 1.653645 L 39.753058,20 h 2.96967 l 3.644908,9.143276 z m -7.131342,0 3.265948,-8.729865 1.350476,3.631128 -1.674315,5.098737 z m 9.356873,-7.152012 V 20 h 7.937493 v 1.991264 z m 2.384004,7.152012 v -6.67659 h 3.169485 v 6.67659 z"
       id="text2"
       style="font-size:14.1111px;font-family:'Black Ops One';-inkscape-font-specification:'Black Ops One';fill:#ffffff;stroke:#000000;stroke-width:0.765;stroke-linecap:square;stroke-linejoin:bevel"
       aria-label="GREAT" />
    <path
       d="M 1.2506602,35.56345 V 33.706542 H 0.12066819 V 32.790146 H 1.240325 v -1.798341 h 1.5365135 v 4.571645 z m -2.893882,0 v -4.571645 h 1.52273315 v 4.571645 z m 8.395703,0 -0.1929255,-0.499539 H 5.0643833 L 5.3813323,34.15785 H 6.2081557 L 4.985146,30.991805 h 1.4848371 l 1.8224567,4.571645 z m -3.5656762,0 1.6329763,-4.364939 0.6752392,1.815567 -0.8371587,2.549372 z m 8.230339,0 -2.711292,-4.571645 h 1.619196 l 1.226455,2.032608 0.964627,-1.653647 v 2.301325 z m 1.322917,0 v -4.571645 h 1.522734 v 4.571645 z m -4.0376541,0 v -4.147898 l 1.4228251,2.387453 v 1.760445 z m 9.1674041,0 V 33.851236 H 15.892325 L 14.975929,32.93484 v -1.030084 l 0.916396,-0.912951 h 0.516765 v 1.622641 h 2.10151 l 0.88539,0.916396 v 1.119657 l -0.912951,0.912951 z m 0,-3.290068 v -0.458198 h -1.219564 v -0.823379 h 1.829347 l 0.792372,0.795818 v 0.485759 z m -2.125625,3.290068 -0.768257,-0.912951 v -0.458198 h 1.522734 v 0.544325 h 1.129992 v 0.826824 z m 4.003205,-3.576012 v -0.995633 h 3.968752 v 0.995633 z m 1.192004,3.576012 v -3.3383 h 1.584744 v 3.3383 z m 3.358969,0 v -4.571645 h 1.522733 v 1.812122 h 1.457276 v 0.881945 h -1.457276 v 1.877578 z m 2.711292,-3.248727 v -0.437528 h -0.947402 v -0.88539 h 2.380562 v 1.322918 z m -0.947402,3.248727 v -0.912951 h 0.857829 v -0.458198 h 1.522733 v 1.371149 z m 4.850696,-1.371149 v -0.88539 h 1.143773 V 31.904756 H 30.91295 v -0.912951 h 1.739775 l 0.916396,0.912951 v 1.371149 l -0.70969,0.70969 0.864719,1.577855 h -1.626086 l -0.647678,-1.371149 z m -1.76389,1.371149 v -4.571645 h 1.522733 v 4.571645 z m 7.820371,0 -1.367703,-4.571645 h 1.515843 l 0.671794,2.511476 0.458198,-1.918919 0.596002,2.170412 -0.492649,1.808676 z m 2.597604,0 -1.254015,-4.571645 h 1.536513 l 1.171333,4.571645 z m 1.615751,-0.237712 -0.620118,-2.435684 0.471979,-1.898249 h 1.388374 z m 4.592315,0.237712 v -1.856908 h -1.129992 v -0.916396 h 1.119657 v -1.798341 h 1.536513 v 4.571645 z m -2.893882,0 v -4.571645 h 1.522733 v 4.571645 z m 5.160759,0 v -4.571645 h 1.522733 v 1.812122 h 1.457276 v 0.881945 h -1.457276 v 1.877578 z m 2.711292,-3.248727 v -0.437528 h -0.947402 v -0.88539 h 2.380562 v 1.322918 z m -0.947402,3.248727 v -0.912951 h 0.857829 v -0.458198 h 1.522733 v 1.371149 z m 3.086806,0 v -4.571645 h 1.522734 v 1.812122 h 1.457276 v 0.881945 h -1.457276 v 1.877578 z m 2.711292,-3.248727 v -0.437528 h -0.947402 v -0.88539 h 2.380563 v 1.322918 z m -0.947402,3.248727 v -0.912951 h 0.85783 v -0.458198 h 1.522733 v 1.371149 z m 3.086807,0 v -4.571645 h 1.522733 v 4.571645 z m 1.76389,0 v -0.912951 h 0.754476 v -0.578776 h 1.381485 v 1.491727 z"
       id="text4"
       style="font-size:7.05556px;font-family:'Black Ops One';-inkscape-font-specification:'Black Ops One';fill:#ffffff;stroke:#000000;stroke-width:0.465;stroke-linecap:square;stroke-linejoin:bevel"
       aria-label="HAMSTER WHEEL" />
    <path
       d="m 19.010487,41.22363 v -1.239545 h 1.601281 v -1.963016 h -1.601281 v -1.278131 h 2.435683 l 1.282954,1.278131 v 1.919608 l -0.993566,0.993565 1.210607,2.208996 h -2.27652 L 19.762896,41.22363 Z m -2.469445,1.919608 v -6.4003 h 2.131825 v 6.4003 z m 11.652694,0 -0.270096,-0.699354 H 25.8304 l 0.443728,-1.268485 h 1.157552 l -1.712213,-4.432461 h 2.078772 l 2.551438,6.4003 z m -4.991945,0 2.286166,-6.110912 0.945334,2.541792 -1.172021,3.56912 z m 8.72505,0 -1.282953,-1.278131 v -3.844038 l 1.282953,-1.278131 h 0.848872 v 6.4003 z m 2.604493,-3.834392 v -1.287777 h -1.418001 v -1.278131 h 2.271696 l 1.278131,1.278131 v 1.287777 z m -1.418001,3.834392 v -1.278131 h 1.418001 v -0.935688 h 2.131826 v 0.935688 l -1.278131,1.278131 z m 4.543393,0 v -6.4003 h 2.131826 v 2.536969 h 2.040186 v 1.234723 h -2.040186 v 2.628608 z m 3.795807,-4.548216 v -0.612538 h -1.326362 v -1.239546 h 3.332786 v 1.852084 z m -1.326362,4.548216 v -1.278131 h 1.200961 V 41.22363 h 2.131825 v 1.919608 z"
       id="text5"
       style="font-size:9.87778px;font-family:'Black Ops One';-inkscape-font-specification:'Black Ops One';fill:#ffffff;stroke:#000000;stroke-width:0.465;stroke-linecap:square;stroke-linejoin:bevel"
       aria-label="RACE" />
  </g>
</svg>
