<?xml version="1.0" encoding="UTF-8" standalone="no"?>
<!-- Uploaded to: SVG Repo, www.svgrepo.com, Generator: SVG Repo Mixer Tools -->

<svg
   fill="#000000"
   width="739.28857"
   height="576.89716"
   viewBox="0 0 51.7502 40.382801"
   version="1.1"
   id="svg1"
   sodipodi:docname="mail.svg"
   inkscape:version="1.4 (e7c3feb100, 2024-10-09)"
   xmlns:inkscape="http://www.inkscape.org/namespaces/inkscape"
   xmlns:sodipodi="http://sodipodi.sourceforge.net/DTD/sodipodi-0.dtd"
   xmlns="http://www.w3.org/2000/svg"
   xmlns:svg="http://www.w3.org/2000/svg">
  <defs
     id="defs1" />
  <sodipodi:namedview
     id="namedview1"
     pagecolor="#ffffff"
     bordercolor="#000000"
     borderopacity="0.25"
     inkscape:showpageshadow="2"
     inkscape:pageopacity="0.0"
     inkscape:pagecheckerboard="0"
     inkscape:deskcolor="#d1d1d1"
     inkscape:zoom="1"
     inkscape:cx="370"
     inkscape:cy="288"
     inkscape:window-width="1920"
     inkscape:window-height="1011"
     inkscape:window-x="0"
     inkscape:window-y="0"
     inkscape:window-maximized="1"
     inkscape:current-layer="svg1" />
  <path
     d="m 25.9219,22.8984 c 0.9844,0 1.875,-0.4453 2.8828,-1.4765 L 49.1951,1.2422 C 48.3283,0.3984 46.7111,0 44.3908,0 H 6.6563 C 4.6875,0 3.3047,0.375 2.5313,1.1484 l 20.5078,20.2735 c 1.0078,1.0078 1.9218,1.4765 2.8828,1.4765 z M 0.586,36.6094 17.1563,20.2266 0.5391,3.8437 C 0.1875,4.5 0,5.625 0,7.2422 v 25.875 c 0,1.664 0.2109,2.8359 0.586,3.4922 z m 50.6251,-0.0235 c 0.3514,-0.6797 0.5391,-1.8281 0.5391,-3.4687 V 7.2422 c 0,-1.5703 -0.1642,-2.6953 -0.516,-3.3281 L 34.6875,20.2266 Z M 7.3594,40.3828 h 37.7341 c 1.969,0 3.3284,-0.375 4.1016,-1.125 L 32.3203,22.5234 30.75,24.0937 c -1.5937,1.5469 -3.1172,2.25 -4.8281,2.25 -1.711,0 -3.2344,-0.7031 -4.8281,-2.25 L 19.5235,22.5234 2.6719,39.2344 c 0.8906,0.7734 2.4609,1.1484 4.6875,1.1484 z"
     id="path1" />
</svg>
